<svg width="216" height="48" viewBox="0 0 216 48" fill="none" xmlns="http://www.w3.org/2000/svg">
<path d="M7.5 34H32.5C33.8807 34 35 32.8807 35 31.5V14C35 12.6193 33.8807 11.5 32.5 11.5L7.5 11.5C6.11929 11.5 5 12.6193 5 14L5 31.5C5 32.8807 6.11929 34 7.5 34Z" stroke="#0EA5E9" stroke-width="3.5" stroke-linecap="round" stroke-linejoin="round"/>
<path d="M25 39H15" stroke="#0EA5E9" stroke-width="3.5" stroke-linecap="round" stroke-linejoin="round"/>
<path d="M20 34V39" stroke="#0EA5E9" stroke-width="3.5" stroke-linecap="round" stroke-linejoin="round"/>
<path d="M14.2857 19L10 22.5714L14.2857 26.1429" stroke="#0EA5E9" stroke-width="3" stroke-linecap="round" stroke-linejoin="round"/>
<path d="M25.7143 19L30 22.5714L25.7143 26.1429" stroke="#0EA5E9" stroke-width="3" stroke-linecap="round" stroke-linejoin="round"/>
<path d="M22.8572 14.7143L17.1429 30.4286" stroke="#0EA5E9" stroke-width="3" stroke-linecap="round" stroke-linejoin="round"/>
<path d="M79.648 12.696V35H76.736V24.888H65.376V35H62.464V12.696H65.376V22.488H76.736V12.696H79.648ZM100.62 25.56C100.62 26.1147 100.588 26.7013 100.524 27.32H86.5083C86.6149 29.048 87.2016 30.4027 88.2683 31.384C89.3563 32.344 90.6683 32.824 92.2043 32.824C93.4629 32.824 94.5083 32.536 95.3403 31.96C96.1936 31.3627 96.7909 30.5733 97.1323 29.592H100.268C99.7989 31.2773 98.8603 32.6533 97.4523 33.72C96.0443 34.7653 94.2949 35.288 92.2043 35.288C90.5403 35.288 89.0469 34.9147 87.7243 34.168C86.4229 33.4213 85.3989 32.3653 84.6523 31C83.9056 29.6133 83.5323 28.0133 83.5323 26.2C83.5323 24.3867 83.8949 22.7973 84.6203 21.432C85.3456 20.0667 86.3589 19.0213 87.6603 18.296C88.9829 17.5493 90.4976 17.176 92.2043 17.176C93.8683 17.176 95.3403 17.5387 96.6203 18.264C97.9003 18.9893 98.8816 19.992 99.5643 21.272C100.268 22.5307 100.62 23.96 100.62 25.56ZM97.6123 24.952C97.6123 23.8427 97.3669 22.8933 96.8763 22.104C96.3856 21.2933 95.7136 20.6853 94.8603 20.28C94.0283 19.8533 93.1003 19.64 92.0763 19.64C90.6043 19.64 89.3456 20.1093 88.3003 21.048C87.2763 21.9867 86.6896 23.288 86.5403 24.952H97.6123ZM107.376 11.32V35H104.464V11.32H107.376ZM115.251 20.696C115.827 19.6933 116.68 18.8613 117.811 18.2C118.963 17.5173 120.296 17.176 121.811 17.176C123.368 17.176 124.776 17.5493 126.035 18.296C127.315 19.0427 128.318 20.0987 129.043 21.464C129.768 22.808 130.131 24.376 130.131 26.168C130.131 27.9387 129.768 29.5173 129.043 30.904C128.318 32.2907 127.315 33.368 126.035 34.136C124.776 34.904 123.368 35.288 121.811 35.288C120.318 35.288 118.995 34.9573 117.843 34.296C116.712 33.6133 115.848 32.7707 115.251 31.768V43.32H112.339V17.464H115.251V20.696ZM127.155 26.168C127.155 24.8453 126.888 23.6933 126.355 22.712C125.822 21.7307 125.096 20.984 124.179 20.472C123.283 19.96 122.291 19.704 121.203 19.704C120.136 19.704 119.144 19.9707 118.227 20.504C117.331 21.016 116.606 21.7733 116.051 22.776C115.518 23.7573 115.251 24.8987 115.251 26.2C115.251 27.5227 115.518 28.6853 116.051 29.688C116.606 30.6693 117.331 31.4267 118.227 31.96C119.144 32.472 120.136 32.728 121.203 32.728C122.291 32.728 123.283 32.472 124.179 31.96C125.096 31.4267 125.822 30.6693 126.355 29.688C126.888 28.6853 127.155 27.512 127.155 26.168ZM149.439 12.696C151.871 12.696 153.973 13.1547 155.743 14.072C157.535 14.968 158.901 16.2587 159.839 17.944C160.799 19.6293 161.279 21.6133 161.279 23.896C161.279 26.1787 160.799 28.1627 159.839 29.848C158.901 31.512 157.535 32.792 155.743 33.688C153.973 34.5627 151.871 35 149.439 35H142.495V12.696H149.439ZM149.439 32.6C152.319 32.6 154.517 31.8427 156.031 30.328C157.546 28.792 158.303 26.648 158.303 23.896C158.303 21.1227 157.535 18.9573 155.999 17.4C154.485 15.8427 152.298 15.064 149.439 15.064H145.407V32.6H149.439ZM181.12 25.56C181.12 26.1147 181.088 26.7013 181.024 27.32H167.008C167.115 29.048 167.702 30.4027 168.768 31.384C169.856 32.344 171.168 32.824 172.704 32.824C173.963 32.824 175.008 32.536 175.84 31.96C176.694 31.3627 177.291 30.5733 177.632 29.592H180.768C180.299 31.2773 179.36 32.6533 177.952 33.72C176.544 34.7653 174.795 35.288 172.704 35.288C171.04 35.288 169.547 34.9147 168.224 34.168C166.923 33.4213 165.899 32.3653 165.152 31C164.406 29.6133 164.032 28.0133 164.032 26.2C164.032 24.3867 164.395 22.7973 165.12 21.432C165.846 20.0667 166.859 19.0213 168.16 18.296C169.483 17.5493 170.998 17.176 172.704 17.176C174.368 17.176 175.84 17.5387 177.12 18.264C178.4 18.9893 179.382 19.992 180.064 21.272C180.768 22.5307 181.12 23.96 181.12 25.56ZM178.112 24.952C178.112 23.8427 177.867 22.8933 177.376 22.104C176.886 21.2933 176.214 20.6853 175.36 20.28C174.528 19.8533 173.6 19.64 172.576 19.64C171.104 19.64 169.846 20.1093 168.8 21.048C167.776 21.9867 167.19 23.288 167.04 24.952H178.112ZM191.172 35.288C189.828 35.288 188.623 35.064 187.556 34.616C186.489 34.1467 185.647 33.5067 185.028 32.696C184.409 31.864 184.068 30.9147 184.004 29.848H187.012C187.097 30.7227 187.503 31.4373 188.228 31.992C188.975 32.5467 189.945 32.824 191.14 32.824C192.249 32.824 193.124 32.5787 193.764 32.088C194.404 31.5973 194.724 30.9787 194.724 30.232C194.724 29.464 194.383 28.8987 193.7 28.536C193.017 28.152 191.961 27.7787 190.532 27.416C189.231 27.0747 188.164 26.7333 187.332 26.392C186.521 26.0293 185.817 25.5067 185.22 24.824C184.644 24.12 184.356 23.2027 184.356 22.072C184.356 21.176 184.623 20.3547 185.156 19.608C185.689 18.8613 186.447 18.2747 187.428 17.848C188.409 17.4 189.529 17.176 190.788 17.176C192.729 17.176 194.297 17.6667 195.492 18.648C196.687 19.6293 197.327 20.9733 197.412 22.68H194.5C194.436 21.7627 194.063 21.0267 193.38 20.472C192.719 19.9173 191.823 19.64 190.692 19.64C189.647 19.64 188.815 19.864 188.196 20.312C187.577 20.76 187.268 21.3467 187.268 22.072C187.268 22.648 187.449 23.128 187.812 23.512C188.196 23.8747 188.665 24.1733 189.22 24.408C189.796 24.6213 190.585 24.8667 191.588 25.144C192.847 25.4853 193.871 25.8267 194.66 26.168C195.449 26.488 196.121 26.9787 196.676 27.64C197.252 28.3013 197.551 29.1653 197.572 30.232C197.572 31.192 197.305 32.056 196.772 32.824C196.239 33.592 195.481 34.2 194.5 34.648C193.54 35.0747 192.431 35.288 191.172 35.288ZM211.475 35L204.595 27.256V35H201.683V11.32H204.595V25.24L211.347 17.464H215.411L207.155 26.2L215.443 35H211.475Z" fill="#E5E5E5"/>
</svg>
